# xmcd
#
# Track frame offsets: 
#        150
#        20285
#        39266
#        51876
#        65360
#        79983
#        91884
#        109617
#        128007
#        141164
#        159138
#        173484
#        188565
#        200296
#        216374
#        230625
#        242044
#        258787
#
# Disc length: 3739 seconds
#
# Revision: 0
# Processed by: cddbd v1.5.2PL0 Copyright (c) Steve Scherf et al.
# Submitted via: ExactAudioCopy v0.99pb4
#
DISCID=e20e9912
DTITLE=HaRLeN SiMpLe - Free Watson
DYEAR=1900
DGENRE=Indie
TTITLE0=New Day
TTITLE1=Like This
TTITLE2=Someday
TTITLE3=I'll Shine (She's a whore)
TTITLE4=Sanity
TTITLE5=Rule No. 1
TTITLE6=Jimi and Jaimi
TTITLE7=One For Donna
TTITLE8=The Love Song
TTITLE9=Weeks
TTITLE10=Not Goin Back
TTITLE11=G 
TTITLE12=Sunshine Road
TTITLE13=(1)Oh Me
TTITLE14=(2)Down The Road
TTITLE15=(3) Untested Veterans
TTITLE16=(4) Shackles
TTITLE17=(5) If You Only Knew
EXTD=
EXTT0=
EXTT1=
EXTT2=
EXTT3=
EXTT4=
EXTT5=
EXTT6=
EXTT7=
EXTT8=
EXTT9=
EXTT10=
EXTT11=
EXTT12=
EXTT13=
EXTT14=
EXTT15=
EXTT16=
EXTT17=
PLAYORDER=
